<?xml version="1.0" encoding="UTF-8"?>
<svg version="1.1" xmlns="http://www.w3.org/2000/svg" width="96" height="96">
<path d="M0 0 C1.674402 4.10019768 0.2635772 7.76705449 -0.87109375 11.828125 C-1.0722731 12.57713074 -1.27345245 13.32613647 -1.48072815 14.09783936 C-2.12397944 16.48443909 -2.78053301 18.86714349 -3.4375 21.25 C-3.87653343 22.86955272 -4.31469485 24.4893421 -4.75195312 26.109375 C-5.82293439 30.07627335 -6.91183105 34.03762262 -8 38 C-2.39 38 3.22 38 9 38 C6.75243883 43.61890293 6.75243883 43.61890293 4.6015625 46.390625 C4.12823486 47.00905273 3.65490723 47.62748047 3.16723633 48.26464844 C2.65829834 48.91981445 2.14936035 49.57498047 1.625 50.25 C-2.77014754 56.00155913 -7.04075164 61.81678472 -11.1875 67.75 C-15.98805407 74.60894257 -20.92146935 81.34404695 -26 88 C-27.674402 83.89980232 -26.2635772 80.23294551 -25.12890625 76.171875 C-24.82713722 75.04836639 -24.82713722 75.04836639 -24.51927185 73.90216064 C-23.87602056 71.51556091 -23.21946699 69.13285651 -22.5625 66.75 C-22.12346657 65.13044728 -21.68530515 63.5106579 -21.24804688 61.890625 C-20.17706561 57.92372665 -19.08816895 53.96237738 -18 50 C-23.61 50 -29.22 50 -35 50 C-32.75243883 44.38109707 -32.75243883 44.38109707 -30.6015625 41.609375 C-30.12823486 40.99094727 -29.65490723 40.37251953 -29.16723633 39.73535156 C-28.40382935 38.75260254 -28.40382935 38.75260254 -27.625 37.75 C-23.22985246 31.99844087 -18.95924836 26.18321528 -14.8125 20.25 C-10.01194593 13.39105743 -5.07853065 6.65595305 0 0 Z " fill="#00E5FF" transform="translate(61,4)"/>
</svg>
